<svg id="Group_2" data-name="Group 2" xmlns="http://www.w3.org/2000/svg" width="54.885" height="55.978" viewBox="0 0 54.885 55.978">
  <path id="Path_253" data-name="Path 253" d="M813.9,576.392V564.3a1.729,1.729,0,0,1,.126-.864,2.464,2.464,0,0,1,.881-.416l.566-.128v13.5h2.266V562.634h1.448V576.39h2.266V562.572h29.771a10.124,10.124,0,0,1,5.256,1.438,11.235,11.235,0,0,1,3.9,3.87,10.392,10.392,0,0,1,1.542,5.246q.061,1.6.063,3.838-.064,4.736-.063,3.9H845.057a1.075,1.075,0,0,1-.881-.384,14.43,14.43,0,0,0-6.231-3.455,13.375,13.375,0,0,0-6.924.034,14.682,14.682,0,0,0-6.231,3.487.9.9,0,0,1-.63.32H807.48l-.315-.064v-2.431q-.064.765-.063-2.944a28.835,28.835,0,0,1,.126-2.943,10.406,10.406,0,0,1,4.217-7.741l.252-.064v11.707h2.2Zm32.1,6.2h15.924v25.14a10.838,10.838,0,0,1-5.35,9.372,10.392,10.392,0,0,1-5.35,1.439H817.866a9.809,9.809,0,0,1-5.35-1.409,11.2,11.2,0,0,1-3.934-3.965,10.464,10.464,0,0,1-1.479-5.438V582.658h15.924a14.273,14.273,0,0,0-1.762,12.923,13.647,13.647,0,0,0,5.6,7.163,13.229,13.229,0,0,0,5.7,2.209,13.986,13.986,0,0,0,6.011-.481,13.76,13.76,0,0,0,8.812-8.125,14.629,14.629,0,0,0,1.07-6.652A15.662,15.662,0,0,0,846,582.6Zm-11.455,19.192a10.838,10.838,0,0,1-5.476-1.44,10.492,10.492,0,0,1-3.965-3.965,11.087,11.087,0,0,1,3.965-15.034,10.439,10.439,0,0,1,5.444-1.5,10.28,10.28,0,0,1,5.413,1.5,11.072,11.072,0,0,1,3.934,4.032,11.177,11.177,0,0,1,0,11,10.689,10.689,0,0,1-9.315,5.4Zm7.93-10.938a8.109,8.109,0,0,0-1.07-4.062,8,8,0,0,0-2.9-2.975,7.887,7.887,0,0,0-7.993,0,8.194,8.194,0,0,0-2.9,11.067,8.261,8.261,0,0,0,2.9,2.975,7.494,7.494,0,0,0,4,1.12,7.659,7.659,0,0,0,4-1.089,8.106,8.106,0,0,0,3.965-7.036Zm14.477-18.872v-2.944a1.786,1.786,0,0,0-.472-1.31,1.646,1.646,0,0,0-1.227-.48q-2.9-.062-5.853,0a1.569,1.569,0,0,0-1.259.51,1.987,1.987,0,0,0-.441,1.343v5.887a1.782,1.782,0,0,0,.472,1.31,1.647,1.647,0,0,0,1.228.481h5.79a1.73,1.73,0,0,0,1.29-.481,1.784,1.784,0,0,0,.472-1.31Z" transform="translate(-807.103 -562.572)" fill="#fff"/>
</svg>
