<svg id="Group_195" data-name="Group 195" xmlns="http://www.w3.org/2000/svg" width="78.829" height="55.776" viewBox="0 0 78.829 55.776">
  <path id="Path_303" data-name="Path 303" d="M1021.96,1154.813v1.8a36.164,36.164,0,0,1-2.97,14.12,41.4,41.4,0,0,1-8.819,12.864,43.771,43.771,0,0,1-14.4,9.415,54.647,54.647,0,0,1-32.845,1.961,48.078,48.078,0,0,1-11.7-4.628q1.89.159,3.869.157a36.439,36.439,0,0,0,10.708-1.569,35.389,35.389,0,0,0,9.359-4.393,17.716,17.716,0,0,1-9.359-2.863,13.8,13.8,0,0,1-5.669-6.942,18.391,18.391,0,0,0,2.97.235,19,19,0,0,0,4.229-.471,16.769,16.769,0,0,1-6.569-2.627,14.578,14.578,0,0,1-4.634-4.944,13.187,13.187,0,0,1-1.755-6.236v-.235a16.877,16.877,0,0,0,7.379,1.8,15.1,15.1,0,0,1-5.264-5.059,12.406,12.406,0,0,1-1.935-6.707,12.655,12.655,0,0,1,2.16-7.06,45.407,45.407,0,0,0,14.668,10.355,50.885,50.885,0,0,0,18.627,4.391,14.285,14.285,0,0,1-.36-3.216,12.4,12.4,0,0,1,2.16-7.06,15.425,15.425,0,0,1,5.894-5.138,17.346,17.346,0,0,1,8.054-1.922,17.868,17.868,0,0,1,6.479,1.178,16.056,16.056,0,0,1,5.309,3.295,34.32,34.32,0,0,0,10.259-3.451,13.163,13.163,0,0,1-2.745,4.51,16.148,16.148,0,0,1-4.364,3.334,36.677,36.677,0,0,0,9.359-2.275A31.754,31.754,0,0,1,1021.96,1154.813Z" transform="translate(-951.23 -1140.849)" fill="#fff"/>
</svg>
